<svg width="138" height="138" viewBox="0 0 138 138" fill="none" xmlns="http://www.w3.org/2000/svg">
<path fill-rule="evenodd" clip-rule="evenodd" d="M0.7334 11.4673C0.7334 8.42599 1.94156 5.50924 4.09209 3.35871C6.24262 1.20817 9.15937 1.52875e-05 12.2007 1.52875e-05H126.512C128.019 -0.00244632 129.512 0.292393 130.905 0.867653C132.298 1.44291 133.564 2.28729 134.63 3.35246C135.696 4.41762 136.542 5.68265 137.119 7.07511C137.696 8.46757 137.992 9.96011 137.991 11.4673V125.778C137.993 127.286 137.697 128.779 137.122 130.172C136.546 131.565 135.701 132.831 134.635 133.897C133.569 134.963 132.304 135.809 130.911 136.386C129.518 136.962 128.025 137.259 126.518 137.258H12.2007C10.6943 137.258 9.20259 136.961 7.8109 136.385C6.41922 135.808 5.1548 134.963 4.08988 133.897C3.02497 132.832 2.18042 131.567 1.6045 130.175C1.02859 128.783 0.732581 127.291 0.7334 125.785V11.4673ZM55.0626 52.3328H73.6486V61.6663C76.3314 56.3008 83.1943 51.4718 93.5074 51.4718C113.279 51.4718 117.964 62.1592 117.964 81.7684V118.092H97.9558V86.2355C97.9558 75.0677 95.273 68.7663 88.46 68.7663C79.0079 68.7663 75.0774 75.5606 75.0774 86.2355V118.092H55.0626V52.3328ZM20.7481 117.237H40.7628V51.4718H20.7481V117.231V117.237ZM43.6265 30.0221C43.6643 31.7358 43.3593 33.4397 42.7296 35.034C42.0999 36.6282 41.1581 38.0806 39.9595 39.3059C38.7608 40.5312 37.3295 41.5048 35.7495 42.1695C34.1695 42.8341 32.4727 43.1765 30.7586 43.1765C29.0445 43.1765 27.3477 42.8341 25.7677 42.1695C24.1877 41.5048 22.7564 40.5312 21.5577 39.3059C20.3591 38.0806 19.4173 36.6282 18.7876 35.034C18.1579 33.4397 17.8529 31.7358 17.8907 30.0221C17.9647 26.6584 19.353 23.4574 21.7581 21.1046C24.1633 18.7518 27.3941 17.4344 30.7586 17.4344C34.1231 17.4344 37.3539 18.7518 39.7591 21.1046C42.1642 23.4574 43.5525 26.6584 43.6265 30.0221V30.0221Z" fill="#141414"/>
</svg>
